<mxfile host="app.diagrams.net" modified="2022-06-05T05:10:10.682Z" agent="5.0 (Windows)" etag="3wM6Sacg72JeNDK5Yr4y" version="19.0.0" type="github" pages="4">
  <diagram id="XANmZ2czD-9ej6D3SZoK" name="Page-1">
    <mxGraphModel dx="1038" dy="527" grid="1" gridSize="10" guides="1" tooltips="1" connect="1" arrows="1" fold="1" page="1" pageScale="1" pageWidth="827" pageHeight="1169" math="0" shadow="0">
      <root>
        <mxCell id="0" />
        <mxCell id="1" parent="0" />
        <mxCell id="3OEsjO1Va4o297TQKoi9-7" style="edgeStyle=orthogonalEdgeStyle;rounded=0;orthogonalLoop=1;jettySize=auto;html=1;fontSize=11;" parent="1" source="3OEsjO1Va4o297TQKoi9-1" edge="1">
          <mxGeometry relative="1" as="geometry">
            <mxPoint x="200" y="200" as="targetPoint" />
            <Array as="points">
              <mxPoint x="180" y="160" />
              <mxPoint x="180" y="200" />
              <mxPoint x="200" y="200" />
            </Array>
          </mxGeometry>
        </mxCell>
        <mxCell id="3OEsjO1Va4o297TQKoi9-13" style="edgeStyle=orthogonalEdgeStyle;rounded=0;orthogonalLoop=1;jettySize=auto;html=1;entryX=0;entryY=0.5;entryDx=0;entryDy=0;fontSize=11;" parent="1" source="3OEsjO1Va4o297TQKoi9-1" target="3OEsjO1Va4o297TQKoi9-4" edge="1">
          <mxGeometry relative="1" as="geometry" />
        </mxCell>
        <mxCell id="3OEsjO1Va4o297TQKoi9-1" value="Descriptor 0" style="rounded=0;whiteSpace=wrap;html=1;fontSize=11;" parent="1" vertex="1">
          <mxGeometry x="200" y="115" width="90" height="50" as="geometry" />
        </mxCell>
        <mxCell id="3OEsjO1Va4o297TQKoi9-8" style="edgeStyle=orthogonalEdgeStyle;rounded=0;orthogonalLoop=1;jettySize=auto;html=1;entryX=0;entryY=0.25;entryDx=0;entryDy=0;fontSize=11;" parent="1" source="3OEsjO1Va4o297TQKoi9-2" target="3OEsjO1Va4o297TQKoi9-3" edge="1">
          <mxGeometry relative="1" as="geometry">
            <Array as="points">
              <mxPoint x="180" y="230" />
              <mxPoint x="180" y="273" />
            </Array>
          </mxGeometry>
        </mxCell>
        <mxCell id="3OEsjO1Va4o297TQKoi9-14" style="edgeStyle=orthogonalEdgeStyle;rounded=0;orthogonalLoop=1;jettySize=auto;html=1;entryX=0;entryY=0.5;entryDx=0;entryDy=0;fontSize=11;" parent="1" source="3OEsjO1Va4o297TQKoi9-2" target="3OEsjO1Va4o297TQKoi9-5" edge="1">
          <mxGeometry relative="1" as="geometry" />
        </mxCell>
        <mxCell id="3OEsjO1Va4o297TQKoi9-2" value="Descriptor 1" style="rounded=0;whiteSpace=wrap;html=1;fontSize=11;" parent="1" vertex="1">
          <mxGeometry x="200" y="190" width="90" height="50" as="geometry" />
        </mxCell>
        <mxCell id="3OEsjO1Va4o297TQKoi9-12" style="edgeStyle=orthogonalEdgeStyle;rounded=0;orthogonalLoop=1;jettySize=auto;html=1;entryX=-0.002;entryY=0.301;entryDx=0;entryDy=0;fontSize=11;entryPerimeter=0;" parent="1" source="3OEsjO1Va4o297TQKoi9-3" target="3OEsjO1Va4o297TQKoi9-1" edge="1">
          <mxGeometry relative="1" as="geometry">
            <Array as="points">
              <mxPoint x="170" y="300" />
              <mxPoint x="170" y="130" />
            </Array>
          </mxGeometry>
        </mxCell>
        <mxCell id="3OEsjO1Va4o297TQKoi9-15" style="edgeStyle=orthogonalEdgeStyle;rounded=0;orthogonalLoop=1;jettySize=auto;html=1;entryX=0;entryY=0.5;entryDx=0;entryDy=0;fontSize=11;" parent="1" source="3OEsjO1Va4o297TQKoi9-3" target="3OEsjO1Va4o297TQKoi9-10" edge="1">
          <mxGeometry relative="1" as="geometry" />
        </mxCell>
        <mxCell id="3OEsjO1Va4o297TQKoi9-3" value="Descriptor 2" style="rounded=0;whiteSpace=wrap;html=1;fontSize=11;" parent="1" vertex="1">
          <mxGeometry x="200" y="260" width="90" height="50" as="geometry" />
        </mxCell>
        <mxCell id="3OEsjO1Va4o297TQKoi9-4" value="Buffer 1" style="rounded=0;whiteSpace=wrap;html=1;fontSize=11;" parent="1" vertex="1">
          <mxGeometry x="320" y="130" width="60" height="20" as="geometry" />
        </mxCell>
        <mxCell id="3OEsjO1Va4o297TQKoi9-5" value="Buffer 1" style="rounded=0;whiteSpace=wrap;html=1;fontSize=11;" parent="1" vertex="1">
          <mxGeometry x="320" y="205" width="60" height="20" as="geometry" />
        </mxCell>
        <mxCell id="3OEsjO1Va4o297TQKoi9-10" value="Buffer 1" style="rounded=0;whiteSpace=wrap;html=1;fontSize=11;" parent="1" vertex="1">
          <mxGeometry x="320" y="275" width="60" height="20" as="geometry" />
        </mxCell>
      </root>
    </mxGraphModel>
  </diagram>
  <diagram id="DePxxl8pFrJQ0NCs-nY5" name="Page-2">
    <mxGraphModel dx="1038" dy="527" grid="1" gridSize="10" guides="1" tooltips="1" connect="1" arrows="1" fold="1" page="1" pageScale="1" pageWidth="827" pageHeight="1169" math="0" shadow="0">
      <root>
        <mxCell id="0" />
        <mxCell id="1" parent="0" />
        <mxCell id="O5TWWwaOENGG_EAJdaIP-1" value="" style="rounded=0;whiteSpace=wrap;html=1;fontSize=13;" parent="1" vertex="1">
          <mxGeometry x="140" y="130" width="510" height="240" as="geometry" />
        </mxCell>
        <mxCell id="O5TWWwaOENGG_EAJdaIP-2" value="&lt;div style=&quot;font-size: 13px;&quot;&gt;O&lt;/div&gt;&lt;div style=&quot;font-size: 13px;&quot;&gt;W&lt;/div&gt;&lt;div style=&quot;font-size: 13px;&quot;&gt;N&lt;/div&gt;" style="rounded=0;whiteSpace=wrap;html=1;fontSize=13;" parent="1" vertex="1">
          <mxGeometry x="140" y="130" width="30" height="60" as="geometry" />
        </mxCell>
        <mxCell id="O5TWWwaOENGG_EAJdaIP-3" value="&lt;div style=&quot;font-size: 13px;&quot;&gt;CT&lt;/div&gt;&lt;div style=&quot;font-size: 13px;&quot;&gt;RL&lt;br style=&quot;font-size: 13px;&quot;&gt;&lt;/div&gt;" style="rounded=0;whiteSpace=wrap;html=1;fontSize=13;" parent="1" vertex="1">
          <mxGeometry x="140" y="190" width="30" height="60" as="geometry" />
        </mxCell>
        <mxCell id="O5TWWwaOENGG_EAJdaIP-4" value="&lt;font style=&quot;font-size: 13px;&quot;&gt;Buffer&amp;nbsp; 1 address[31:0]&lt;/font&gt;" style="rounded=0;whiteSpace=wrap;html=1;fontSize=13;" parent="1" vertex="1">
          <mxGeometry x="140" y="250" width="510" height="60" as="geometry" />
        </mxCell>
        <mxCell id="O5TWWwaOENGG_EAJdaIP-5" value="&lt;font style=&quot;font-size: 13px;&quot;&gt;Buffer&amp;nbsp; 1 address[31:0] or Next Descriptor address [31:0]&lt;/font&gt;" style="rounded=0;whiteSpace=wrap;html=1;fontSize=13;" parent="1" vertex="1">
          <mxGeometry x="140" y="310" width="510" height="60" as="geometry" />
        </mxCell>
        <mxCell id="O5TWWwaOENGG_EAJdaIP-6" value="&lt;div style=&quot;font-size: 13px;&quot;&gt;Buffer 1 byte count&lt;/div&gt;&lt;div style=&quot;font-size: 13px;&quot;&gt;[12:0]&lt;br style=&quot;font-size: 13px;&quot;&gt;&lt;/div&gt;" style="rounded=0;whiteSpace=wrap;html=1;fontSize=13;" parent="1" vertex="1">
          <mxGeometry x="510" y="190" width="140" height="60" as="geometry" />
        </mxCell>
        <mxCell id="O5TWWwaOENGG_EAJdaIP-8" value="Res." style="rounded=0;whiteSpace=wrap;html=1;fontSize=13;" parent="1" vertex="1">
          <mxGeometry x="480" y="190" width="30" height="60" as="geometry" />
        </mxCell>
        <mxCell id="O5TWWwaOENGG_EAJdaIP-9" value="&lt;div style=&quot;font-size: 13px;&quot;&gt;CTRL&lt;/div&gt;&lt;div style=&quot;font-size: 13px;&quot;&gt;[15:14]&lt;br style=&quot;font-size: 13px;&quot;&gt;&lt;/div&gt;" style="rounded=0;whiteSpace=wrap;html=1;fontSize=13;" parent="1" vertex="1">
          <mxGeometry x="420" y="190" width="60" height="60" as="geometry" />
        </mxCell>
        <mxCell id="O5TWWwaOENGG_EAJdaIP-10" value="&lt;div style=&quot;font-size: 13px;&quot;&gt;Buffer 2 byte count&lt;/div&gt;&lt;div style=&quot;font-size: 13px;&quot;&gt;[28:16]&lt;br style=&quot;font-size: 13px;&quot;&gt;&lt;/div&gt;" style="rounded=0;whiteSpace=wrap;html=1;fontSize=13;" parent="1" vertex="1">
          <mxGeometry x="290" y="190" width="130" height="60" as="geometry" />
        </mxCell>
        <mxCell id="O5TWWwaOENGG_EAJdaIP-11" value="&lt;div style=&quot;font-size: 13px;&quot;&gt;Reserved&lt;/div&gt;&lt;div style=&quot;font-size: 13px;&quot;&gt;[30:29]&lt;br style=&quot;font-size: 13px;&quot;&gt;&lt;/div&gt;" style="rounded=0;whiteSpace=wrap;html=1;fontSize=13;" parent="1" vertex="1">
          <mxGeometry x="170" y="190" width="120" height="60" as="geometry" />
        </mxCell>
        <mxCell id="O5TWWwaOENGG_EAJdaIP-13" value="Status [30:0]" style="rounded=0;whiteSpace=wrap;html=1;fontSize=13;" parent="1" vertex="1">
          <mxGeometry x="170" y="130" width="480" height="60" as="geometry" />
        </mxCell>
        <mxCell id="O5TWWwaOENGG_EAJdaIP-14" value="31" style="text;html=1;strokeColor=none;fillColor=none;align=center;verticalAlign=middle;whiteSpace=wrap;rounded=0;fontSize=13;" parent="1" vertex="1">
          <mxGeometry x="140" y="100" width="30" height="30" as="geometry" />
        </mxCell>
        <mxCell id="O5TWWwaOENGG_EAJdaIP-15" value="0" style="text;html=1;strokeColor=none;fillColor=none;align=center;verticalAlign=middle;whiteSpace=wrap;rounded=0;fontSize=13;" parent="1" vertex="1">
          <mxGeometry x="620" y="100" width="30" height="30" as="geometry" />
        </mxCell>
        <mxCell id="O5TWWwaOENGG_EAJdaIP-16" value="RDES 0" style="text;html=1;strokeColor=none;fillColor=none;align=center;verticalAlign=middle;whiteSpace=wrap;rounded=0;fontSize=16;" parent="1" vertex="1">
          <mxGeometry x="60" y="145" width="70" height="30" as="geometry" />
        </mxCell>
        <mxCell id="O5TWWwaOENGG_EAJdaIP-17" value="RDES 1" style="text;html=1;strokeColor=none;fillColor=none;align=center;verticalAlign=middle;whiteSpace=wrap;rounded=0;fontSize=16;" parent="1" vertex="1">
          <mxGeometry x="60" y="205" width="70" height="30" as="geometry" />
        </mxCell>
        <mxCell id="O5TWWwaOENGG_EAJdaIP-18" value="RDES 2" style="text;html=1;strokeColor=none;fillColor=none;align=center;verticalAlign=middle;whiteSpace=wrap;rounded=0;fontSize=16;" parent="1" vertex="1">
          <mxGeometry x="60" y="265" width="70" height="30" as="geometry" />
        </mxCell>
        <mxCell id="O5TWWwaOENGG_EAJdaIP-19" value="RDES 3" style="text;html=1;strokeColor=none;fillColor=none;align=center;verticalAlign=middle;whiteSpace=wrap;rounded=0;fontSize=16;" parent="1" vertex="1">
          <mxGeometry x="60" y="325" width="70" height="30" as="geometry" />
        </mxCell>
      </root>
    </mxGraphModel>
  </diagram>
  <diagram id="ZuqDVYVI6PzLc5Px26Sm" name="Frame">
    <mxGraphModel dx="593" dy="301" grid="1" gridSize="10" guides="1" tooltips="1" connect="1" arrows="1" fold="1" page="1" pageScale="1" pageWidth="827" pageHeight="1169" math="0" shadow="0">
      <root>
        <mxCell id="0" />
        <mxCell id="1" parent="0" />
        <mxCell id="IQ2Cx_OHcFBtu5aQ8yxc-4" style="edgeStyle=orthogonalEdgeStyle;rounded=0;orthogonalLoop=1;jettySize=auto;html=1;fontSize=16;" parent="1" source="IQ2Cx_OHcFBtu5aQ8yxc-1" target="IQ2Cx_OHcFBtu5aQ8yxc-2" edge="1">
          <mxGeometry relative="1" as="geometry" />
        </mxCell>
        <mxCell id="IQ2Cx_OHcFBtu5aQ8yxc-6" style="edgeStyle=orthogonalEdgeStyle;rounded=0;orthogonalLoop=1;jettySize=auto;html=1;fontSize=16;entryX=0;entryY=0.5;entryDx=0;entryDy=0;" parent="1" source="IQ2Cx_OHcFBtu5aQ8yxc-1" target="IQ2Cx_OHcFBtu5aQ8yxc-11" edge="1">
          <mxGeometry relative="1" as="geometry">
            <mxPoint x="280" y="165" as="targetPoint" />
          </mxGeometry>
        </mxCell>
        <mxCell id="IQ2Cx_OHcFBtu5aQ8yxc-1" value="OWN" style="rhombus;whiteSpace=wrap;html=1;fontSize=16;" parent="1" vertex="1">
          <mxGeometry x="160" y="140" width="80" height="50" as="geometry" />
        </mxCell>
        <mxCell id="IQ2Cx_OHcFBtu5aQ8yxc-5" style="edgeStyle=orthogonalEdgeStyle;rounded=0;orthogonalLoop=1;jettySize=auto;html=1;fontSize=16;" parent="1" source="IQ2Cx_OHcFBtu5aQ8yxc-2" target="IQ2Cx_OHcFBtu5aQ8yxc-3" edge="1">
          <mxGeometry relative="1" as="geometry" />
        </mxCell>
        <mxCell id="IQ2Cx_OHcFBtu5aQ8yxc-15" style="edgeStyle=orthogonalEdgeStyle;rounded=0;orthogonalLoop=1;jettySize=auto;html=1;entryX=0;entryY=0.5;entryDx=0;entryDy=0;fontSize=16;" parent="1" source="IQ2Cx_OHcFBtu5aQ8yxc-2" target="IQ2Cx_OHcFBtu5aQ8yxc-14" edge="1">
          <mxGeometry relative="1" as="geometry" />
        </mxCell>
        <mxCell id="IQ2Cx_OHcFBtu5aQ8yxc-2" value="LS" style="rhombus;whiteSpace=wrap;html=1;fontSize=16;" parent="1" vertex="1">
          <mxGeometry x="160" y="210" width="80" height="40" as="geometry" />
        </mxCell>
        <mxCell id="IQ2Cx_OHcFBtu5aQ8yxc-9" style="edgeStyle=orthogonalEdgeStyle;rounded=0;orthogonalLoop=1;jettySize=auto;html=1;entryX=0.5;entryY=0;entryDx=0;entryDy=0;fontSize=16;" parent="1" source="IQ2Cx_OHcFBtu5aQ8yxc-3" target="IQ2Cx_OHcFBtu5aQ8yxc-7" edge="1">
          <mxGeometry relative="1" as="geometry" />
        </mxCell>
        <mxCell id="IQ2Cx_OHcFBtu5aQ8yxc-13" style="edgeStyle=orthogonalEdgeStyle;rounded=0;orthogonalLoop=1;jettySize=auto;html=1;entryX=0;entryY=0.5;entryDx=0;entryDy=0;fontSize=16;" parent="1" source="IQ2Cx_OHcFBtu5aQ8yxc-3" target="IQ2Cx_OHcFBtu5aQ8yxc-12" edge="1">
          <mxGeometry relative="1" as="geometry" />
        </mxCell>
        <mxCell id="IQ2Cx_OHcFBtu5aQ8yxc-3" value="FS" style="rhombus;whiteSpace=wrap;html=1;fontSize=16;" parent="1" vertex="1">
          <mxGeometry x="160" y="270" width="80" height="40" as="geometry" />
        </mxCell>
        <mxCell id="j85aqocNSa5Xg9ovnyZV-1" style="edgeStyle=orthogonalEdgeStyle;rounded=0;orthogonalLoop=1;jettySize=auto;html=1;entryX=0.5;entryY=0;entryDx=0;entryDy=0;" edge="1" parent="1" source="IQ2Cx_OHcFBtu5aQ8yxc-7" target="IQ2Cx_OHcFBtu5aQ8yxc-1">
          <mxGeometry relative="1" as="geometry">
            <Array as="points">
              <mxPoint x="150" y="360" />
              <mxPoint x="150" y="120" />
              <mxPoint x="200" y="120" />
            </Array>
          </mxGeometry>
        </mxCell>
        <mxCell id="IQ2Cx_OHcFBtu5aQ8yxc-7" value="获取下一个描述符" style="rounded=1;whiteSpace=wrap;html=1;fontSize=16;" parent="1" vertex="1">
          <mxGeometry x="165" y="330" width="70" height="60" as="geometry" />
        </mxCell>
        <mxCell id="IQ2Cx_OHcFBtu5aQ8yxc-11" value="返回error" style="rounded=1;whiteSpace=wrap;html=1;fontSize=16;" parent="1" vertex="1">
          <mxGeometry x="270" y="147.5" width="80" height="35" as="geometry" />
        </mxCell>
        <mxCell id="IQ2Cx_OHcFBtu5aQ8yxc-16" style="edgeStyle=orthogonalEdgeStyle;rounded=0;orthogonalLoop=1;jettySize=auto;html=1;entryX=1;entryY=0.5;entryDx=0;entryDy=0;fontSize=16;" parent="1" source="IQ2Cx_OHcFBtu5aQ8yxc-12" target="IQ2Cx_OHcFBtu5aQ8yxc-7" edge="1">
          <mxGeometry relative="1" as="geometry">
            <Array as="points">
              <mxPoint x="320" y="360" />
            </Array>
          </mxGeometry>
        </mxCell>
        <mxCell id="IQ2Cx_OHcFBtu5aQ8yxc-12" value="获取buffer头" style="rounded=1;whiteSpace=wrap;html=1;fontSize=16;" parent="1" vertex="1">
          <mxGeometry x="270" y="275" width="100" height="30" as="geometry" />
        </mxCell>
        <mxCell id="IQ2Cx_OHcFBtu5aQ8yxc-18" style="edgeStyle=orthogonalEdgeStyle;rounded=0;orthogonalLoop=1;jettySize=auto;html=1;fontSize=16;entryX=0;entryY=0.5;entryDx=0;entryDy=0;" parent="1" source="IQ2Cx_OHcFBtu5aQ8yxc-14" target="IQ2Cx_OHcFBtu5aQ8yxc-19" edge="1">
          <mxGeometry relative="1" as="geometry">
            <mxPoint x="390" y="230" as="targetPoint" />
          </mxGeometry>
        </mxCell>
        <mxCell id="IQ2Cx_OHcFBtu5aQ8yxc-14" value="获取报文长度" style="rounded=1;whiteSpace=wrap;html=1;fontSize=16;" parent="1" vertex="1">
          <mxGeometry x="270" y="210" width="100" height="40" as="geometry" />
        </mxCell>
        <mxCell id="IQ2Cx_OHcFBtu5aQ8yxc-19" value="返回OK" style="rounded=1;whiteSpace=wrap;html=1;fontSize=16;" parent="1" vertex="1">
          <mxGeometry x="390" y="216.25" width="60" height="27.5" as="geometry" />
        </mxCell>
        <mxCell id="IQ2Cx_OHcFBtu5aQ8yxc-23" value="" style="endArrow=classic;html=1;rounded=0;fontSize=16;entryX=0.5;entryY=0;entryDx=0;entryDy=0;" parent="1" target="IQ2Cx_OHcFBtu5aQ8yxc-1" edge="1">
          <mxGeometry width="50" height="50" relative="1" as="geometry">
            <mxPoint x="200" y="120" as="sourcePoint" />
            <mxPoint x="230" y="70" as="targetPoint" />
          </mxGeometry>
        </mxCell>
        <mxCell id="IQ2Cx_OHcFBtu5aQ8yxc-24" value="&lt;font style=&quot;font-size: 13px;&quot;&gt;否&lt;/font&gt;" style="text;html=1;strokeColor=none;fillColor=none;align=center;verticalAlign=middle;whiteSpace=wrap;rounded=0;fontSize=16;" parent="1" vertex="1">
          <mxGeometry x="240" y="147.5" width="10" height="10" as="geometry" />
        </mxCell>
        <mxCell id="IQ2Cx_OHcFBtu5aQ8yxc-25" value="&lt;font style=&quot;font-size: 13px;&quot;&gt;否&lt;/font&gt;" style="text;html=1;strokeColor=none;fillColor=none;align=center;verticalAlign=middle;whiteSpace=wrap;rounded=0;fontSize=16;" parent="1" vertex="1">
          <mxGeometry x="210" y="250" width="10" height="10" as="geometry" />
        </mxCell>
        <mxCell id="IQ2Cx_OHcFBtu5aQ8yxc-26" value="&lt;font style=&quot;font-size: 13px;&quot;&gt;否&lt;/font&gt;" style="text;html=1;strokeColor=none;fillColor=none;align=center;verticalAlign=middle;whiteSpace=wrap;rounded=0;fontSize=16;" parent="1" vertex="1">
          <mxGeometry x="210" y="310" width="10" height="10" as="geometry" />
        </mxCell>
        <mxCell id="IQ2Cx_OHcFBtu5aQ8yxc-27" value="&lt;font style=&quot;font-size: 12px;&quot;&gt;是&lt;/font&gt;" style="text;html=1;strokeColor=none;fillColor=none;align=center;verticalAlign=middle;whiteSpace=wrap;rounded=0;fontSize=16;" parent="1" vertex="1">
          <mxGeometry x="203" y="189" width="10" height="10" as="geometry" />
        </mxCell>
        <mxCell id="IQ2Cx_OHcFBtu5aQ8yxc-29" value="&lt;font style=&quot;font-size: 12px;&quot;&gt;是&lt;/font&gt;" style="text;html=1;strokeColor=none;fillColor=none;align=center;verticalAlign=middle;whiteSpace=wrap;rounded=0;fontSize=16;" parent="1" vertex="1">
          <mxGeometry x="240" y="216.25" width="10" height="10" as="geometry" />
        </mxCell>
        <mxCell id="IQ2Cx_OHcFBtu5aQ8yxc-30" value="&lt;font style=&quot;font-size: 12px;&quot;&gt;是&lt;/font&gt;" style="text;html=1;strokeColor=none;fillColor=none;align=center;verticalAlign=middle;whiteSpace=wrap;rounded=0;fontSize=16;" parent="1" vertex="1">
          <mxGeometry x="240" y="275" width="10" height="10" as="geometry" />
        </mxCell>
      </root>
    </mxGraphModel>
  </diagram>
  <diagram id="ocwEOIualIpdkRIsMwPh" name="Page-4">
    <mxGraphModel dx="1038" dy="527" grid="1" gridSize="10" guides="1" tooltips="1" connect="1" arrows="1" fold="1" page="1" pageScale="1" pageWidth="827" pageHeight="1169" math="0" shadow="0">
      <root>
        <mxCell id="0" />
        <mxCell id="1" parent="0" />
        <mxCell id="B_kHks9A23TDpFL6BFZu-6" style="edgeStyle=orthogonalEdgeStyle;rounded=0;orthogonalLoop=1;jettySize=auto;html=1;" parent="1" source="B_kHks9A23TDpFL6BFZu-1" target="B_kHks9A23TDpFL6BFZu-2" edge="1">
          <mxGeometry relative="1" as="geometry" />
        </mxCell>
        <mxCell id="B_kHks9A23TDpFL6BFZu-1" value="初始化" style="rounded=1;whiteSpace=wrap;html=1;" parent="1" vertex="1">
          <mxGeometry x="270" y="140" width="110" height="60" as="geometry" />
        </mxCell>
        <mxCell id="B_kHks9A23TDpFL6BFZu-7" style="edgeStyle=orthogonalEdgeStyle;rounded=0;orthogonalLoop=1;jettySize=auto;html=1;entryX=0.487;entryY=0.017;entryDx=0;entryDy=0;entryPerimeter=0;" parent="1" source="B_kHks9A23TDpFL6BFZu-2" target="B_kHks9A23TDpFL6BFZu-3" edge="1">
          <mxGeometry relative="1" as="geometry">
            <Array as="points">
              <mxPoint x="326" y="290" />
              <mxPoint x="326" y="290" />
            </Array>
          </mxGeometry>
        </mxCell>
        <mxCell id="B_kHks9A23TDpFL6BFZu-2" value="等待测试用例" style="rounded=1;whiteSpace=wrap;html=1;" parent="1" vertex="1">
          <mxGeometry x="270" y="230" width="110" height="60" as="geometry" />
        </mxCell>
        <mxCell id="B_kHks9A23TDpFL6BFZu-8" style="edgeStyle=orthogonalEdgeStyle;rounded=0;orthogonalLoop=1;jettySize=auto;html=1;" parent="1" source="B_kHks9A23TDpFL6BFZu-3" target="B_kHks9A23TDpFL6BFZu-4" edge="1">
          <mxGeometry relative="1" as="geometry" />
        </mxCell>
        <mxCell id="B_kHks9A23TDpFL6BFZu-3" value="输入测试用例" style="rounded=1;whiteSpace=wrap;html=1;" parent="1" vertex="1">
          <mxGeometry x="270" y="310" width="110" height="60" as="geometry" />
        </mxCell>
        <mxCell id="B_kHks9A23TDpFL6BFZu-4" value="更新测试状态" style="rounded=1;whiteSpace=wrap;html=1;" parent="1" vertex="1">
          <mxGeometry x="270" y="390" width="110" height="60" as="geometry" />
        </mxCell>
      </root>
    </mxGraphModel>
  </diagram>
</mxfile>
